<svg width="24" height="32" viewBox="0 0 24 32" fill="none" xmlns="http://www.w3.org/2000/svg">
<path d="M22.7682 11.3094C22.6043 11.4491 19.7109 13.2399 19.7109 17.2218C19.7109 21.8276 23.3926 23.4571 23.5028 23.4974C23.4859 23.5967 22.9179 25.7289 21.5617 27.9015C20.3523 29.8133 19.0893 31.7221 17.1679 31.7221C15.2466 31.7221 14.7521 30.4961 12.534 30.4961C10.3725 30.4961 9.60393 31.7624 7.84644 31.7624C6.08894 31.7624 4.86265 29.9933 3.4527 27.8208C1.81953 25.2696 0.5 21.3062 0.5 17.5446C0.5 11.5111 4.0715 8.31127 7.58649 8.31127C9.45418 8.31127 11.0111 9.65825 12.1837 9.65825C13.2998 9.65825 15.0403 8.23057 17.1651 8.23057C17.9704 8.23057 20.8638 8.31127 22.7682 11.3094ZM16.1564 5.67627C17.0351 4.53103 17.6568 2.94196 17.6568 1.3529C17.6568 1.13254 17.6398 0.909076 17.6031 0.729065C16.1733 0.788034 14.4724 1.77499 13.4467 3.08163C12.6414 4.08721 11.8898 5.67628 11.8898 7.28707C11.8898 7.52915 11.9265 7.77123 11.9435 7.84883C12.0339 7.86745 12.1808 7.88917 12.3278 7.88917C13.6106 7.88917 15.224 6.94567 16.1564 5.67627Z" fill="black"/>
</svg>
