<svg width="24" height="26" viewBox="0 0 24 26" fill="none" xmlns="http://www.w3.org/2000/svg">
<path d="M23.4878 12.8925C23.4878 11.8574 23.4095 11.1021 23.2402 10.3188H12.229V14.9905H18.6923C18.5621 16.1515 17.8584 17.8999 16.2946 19.0747L16.2727 19.2311L19.7543 22.1261L19.9955 22.152C22.2107 19.956 23.4878 16.7249 23.4878 12.8925Z" fill="#4285F4"/>
<path d="M12.2291 25.2012C15.3956 25.2012 18.0539 24.0822 19.9956 22.152L16.2948 19.0748C15.3044 19.8161 13.9753 20.3336 12.2291 20.3336C9.12779 20.3336 6.49555 18.1377 5.55723 15.1025L5.41969 15.115L1.79954 18.1223L1.7522 18.2635C3.68076 22.3757 7.6422 25.2012 12.2291 25.2012Z" fill="#34A853"/>
<path d="M5.5572 15.1025C5.30961 14.3192 5.16633 13.4799 5.16633 12.6127C5.16633 11.7455 5.30961 10.9063 5.54417 10.123L5.53761 9.95619L1.87209 6.90063L1.75217 6.96187C0.95731 8.66832 0.501221 10.5846 0.501221 12.6127C0.501221 14.6409 0.95731 16.557 1.75217 18.2635L5.5572 15.1025Z" fill="#FBBC05"/>
<path d="M12.2291 4.89179C14.4314 4.89179 15.9169 5.91285 16.7639 6.76612L20.0738 3.29729C18.041 1.26915 15.3956 0.024292 12.2291 0.024292C7.6422 0.024292 3.68076 2.84968 1.7522 6.96187L5.5442 10.123C6.49555 7.0878 9.12779 4.89179 12.2291 4.89179Z" fill="#EB4335"/>
</svg>
